<svg width="84" height="84" viewBox="0 0 84 84" fill="none" xmlns="http://www.w3.org/2000/svg">
<path fill-rule="evenodd" clip-rule="evenodd" d="M42.0002 8.66668C23.5907 8.66668 8.66683 23.5905 8.66683 42C8.66683 50.7463 12.0338 58.7078 17.5501 64.6573C17.7584 63.9682 18.0354 63.2913 18.3967 62.6453C19.6217 60.4551 21.167 58.4299 23.0005 56.6391C24.8406 54.8419 26.9166 53.3336 29.1558 52.1419C25.7455 48.8775 23.6133 44.3152 23.6133 39.2222C23.6133 29.1584 31.9385 21.1667 42.0002 21.1667C52.0618 21.1667 60.387 29.1584 60.387 39.2222C60.387 44.3152 58.2549 48.8775 54.8446 52.1419C57.0837 53.3336 59.1597 54.8419 60.9998 56.6391C62.8333 58.4299 64.3786 60.4551 65.6036 62.6453C65.9649 63.2914 66.2419 63.9682 66.4502 64.6573C71.9666 58.7078 75.3335 50.7463 75.3335 42C75.3335 23.5905 60.4097 8.66668 42.0002 8.66668ZM58.4215 71.0153C58.5833 70.1831 58.6644 69.4018 58.6668 68.7096C58.6708 67.5659 58.4613 66.9469 58.3306 66.7132C57.4949 65.2191 56.4377 63.8319 55.1771 62.6007C51.6988 59.2034 46.9607 57.2778 42.0002 57.2778C37.0397 57.2778 32.3016 59.2034 28.8232 62.6007C27.5626 63.8319 26.5054 65.2191 25.6698 66.7132C25.5391 66.9468 25.3296 67.5659 25.3336 68.7096C25.336 69.4018 25.4171 70.1831 25.5788 71.0153C30.4231 73.7637 36.0231 75.3334 42.0002 75.3334C47.9773 75.3334 53.5772 73.7637 58.4215 71.0153ZM42.0002 48.9445C47.6457 48.9445 52.0537 44.4996 52.0537 39.2222C52.0537 33.9448 47.6457 29.5 42.0002 29.5C36.3546 29.5 31.9467 33.9448 31.9467 39.2222C31.9467 44.4996 36.3546 48.9445 42.0002 48.9445ZM0.333496 42C0.333496 18.9881 18.9883 0.333344 42.0002 0.333344C65.012 0.333344 83.6668 18.9881 83.6668 42C83.6668 56.8219 75.9246 69.8326 64.2834 77.2132C57.8365 81.3006 50.1883 83.6667 42.0002 83.6667C33.8121 83.6667 26.1639 81.3006 19.7169 77.2132C8.07573 69.8326 0.333496 56.8219 0.333496 42Z" fill="black"/>
</svg>
